<svg width="592" height="436" viewBox="0 0 592 436" fill="none" xmlns="http://www.w3.org/2000/svg">
<g clip-path="url(#clip0_732_79)">
<path d="M493.926 287.093V288.644L494.098 289.427L494.521 290.227L494.896 291.105V290.105L495.805 290.685L496.447 289.245L495.978 288.336L496.278 287.912L495.716 287.38L494.822 287.254L494.413 286.8L493.926 287.093Z" fill="#EEEEEE"/>
<path d="M559.058 385.676L557.913 383.976H555.868L557.355 385.245L558.499 386.639V388.371L560.139 387.609L560.357 386.173L559.798 385.493L559.058 385.676Z" fill="#EEEEEE"/>
<path d="M554.33 371.887V372.787L554.83 373.474H556.302L556.933 372.474L555.803 371.881L554.33 371.887Z" fill="#EEEEEE"/>
<path d="M551.241 368.637L550.553 368.982V370.005L551.217 370.345L552.517 370.245L552.209 369.327L551.877 368.639L551.241 368.637Z" fill="#EEEEEE"/>
<path d="M557.247 365.163L556.797 364.58L556.275 364.464L555.61 365.129L555.16 365.863H554.66L554.945 366.788L555.799 367.121H556.557L557.457 365.863L557.247 365.163Z" fill="#EEEEEE"/>
<path d="M563.797 366.758L563.715 365.772L562.806 364.85L560.959 365.034L560.359 366.801L560.259 367.088L560.359 367.179L563.426 370.008L564.496 369.35V368.488L565.352 367.746L564.332 366.965L563.797 366.758Z" fill="#EEEEEE"/>
<path d="M569.539 347.099V345.967L571.189 346.678L568.765 344.642L567.084 343.77H568.184L570.189 344.544V343.77L568.344 342.831H566.954L565.789 341.343L564.302 342.023L563.592 342.864L564.367 344.19L563.981 345.19L562.492 344.769L560.877 344.316L560.363 344.329L559.518 344.349L560.363 345.13L561.652 346.321L560.585 346.548L561.942 348.163L565.92 349.522L569.704 350.396L571.19 350.976L571.06 348.859L569.539 347.099Z" fill="#EEEEEE"/>
<path d="M558.835 349.056L552.982 345.482L552.499 346.614L552.982 348.328L554.536 350.365L556.93 352.24L555.91 350.332L557.801 350.883L557.121 349.683L557.964 349.91L558.835 349.056Z" fill="#EEEEEE"/>
<path d="M553.468 340.373L551.804 338.595L552.204 338.207L551.267 337.788L550.135 338.207L553.109 341.344L553.468 340.373Z" fill="#EEEEEE"/>
<path d="M535.764 332.481L533.721 330.542L533.132 330.642L532.44 330.053H531.711V332.2L533.097 334.521L532.404 335.445L532.613 336.845L532.958 337.47H532.402L532.923 338.509L534.93 339.963L534.63 340.763L536.975 342.53L535.658 344.193V344.919L534.63 345.197L534.342 349.735L535.382 350.982L536.768 351.813L538.775 353.856L540.403 355.727L538.015 354.895L536.769 355.449L536.595 355.934L537.358 357.077L536.769 358.637L535.763 358.983L535.591 360.265L536.456 361.372L536.803 362.447L540.403 365.461L542.412 367.643L543.59 368.06L546.257 366.986L547.642 365.808L548.542 365.843L550.442 364.665L549.023 361.616L546.667 359.573L546.46 358.327L547.535 358.603L549.266 360.303L550.443 361.103L552.176 360.757L552.556 361.103L553.423 360.824L554.288 361.378L555.088 360.824L555.609 358.782L556.37 359.093L556.927 358.093L555.678 356.222L554.396 355.286L553.878 354.072L551.939 353.796L550.447 352.168L549.479 351.336L547.851 349.778L546.12 348.426L545.566 348.254L545.357 347.284L544.528 346.626L544.007 346.696L542.482 345.657L542.311 343.994L543.522 344.653L543.835 343.994L545.774 345.589L546.71 345.689L548.338 346.624L549.03 346.139L550.485 346.797L551.385 346.382L548.997 344.2L545.915 341.74L544.772 340.39L542.588 338.312L541.723 337.93L538.848 334.53L537.774 334.322L535.764 332.481Z" fill="#EEEEEE"/>
<path d="M531.085 325.434L530.908 325.701L532.335 327.255L533.919 327.936L536.339 330.047L538.357 331.697V331.225L535.783 328.959L534.633 327.626L533.613 327.649L533.094 326.901L532.144 326.217L531.085 325.434Z" fill="#EEEEEE"/>
<path d="M528.254 331.58V326.94L527.508 324.481L527.258 323.381L525.821 323.575L524.991 323.215L524.88 323.906L524.108 323.63L522.808 324.13L523.444 325.595L524.604 325.18L525.46 326.7L524.714 327.556L525.814 329.712L526.56 330.127H527.114L527.334 330.652L527.085 331.12L528.254 331.58Z" fill="#EEEEEE"/>
<path d="M529.331 321.966L529.885 321.635V320.517L528.504 319.535L527.648 320.005L528.115 321.166H529.215L529.331 321.966Z" fill="#EEEEEE"/>
<path d="M525.822 322.464L525.652 321.193L524.8 320.088L523.529 318.495L523.39 317.906L521.899 316.906L521.65 318.371L521.07 318.49L520.615 317.377L519.358 317.432L521.871 324.117L525.822 322.464Z" fill="#EEEEEE"/>
<path d="M521.304 310.269L522.35 309.581V308.594L521.245 308.744L520.976 307.338L518.885 306.471L520.707 309.31L521.304 310.269Z" fill="#EEEEEE"/>
<path d="M522.503 298.561L522.903 298.232L522.826 297.468L522.109 297.92L522.436 299.182L522.503 298.561Z" fill="#EEEEEE"/>
<path d="M520.293 299.414L520.362 299.855L519.707 299.902L519.107 299.415L519.007 300.106L519.775 301.306L519.764 302.025L520.828 304.167L522.864 306.814L524.664 308.314L525.456 309.705L525.242 311.389L525.76 312.216L526.667 313.143L526.7 313.708H527.005L527.515 314.297L528.137 314.253L528.961 315.733L530.398 317.407L530.411 318.029L530.748 318.062L531.395 318.492L532.151 317.847L532.31 317.168L531.688 315.677L531.395 314.104L530.737 313.797L530.795 313.561L529.833 312.136L529.595 311.196L528.94 310.87V310.383L528.5 309.671L526.59 307.941L525.605 306.841L523.932 305.133V304.489L524.132 303.389L523.68 302.381L522.652 301.296L521.77 300.742L521.147 300.042L520.293 299.414Z" fill="#EEEEEE"/>
<path d="M511.759 298.551L510.593 298.032L508.109 297.866L508.579 298.572L509.263 298.784L509.686 299.098L510.475 299.409L510.958 299.323L511.84 299.75L512.606 300.174L513.371 300.326L513.325 299.715L511.759 298.551Z" fill="#EEEEEE"/>
<path d="M514.559 301.786L513.628 300.656H513.075L513.982 301.956L514.559 301.786Z" fill="#EEEEEE"/>
<path d="M516.89 305.506L518.456 305.177L517.584 304.224L517.515 304.612L516.657 303.959L515.384 302.576L514.738 302.022L514.195 302.41L515.772 304.528L516.89 305.506Z" fill="#EEEEEE"/>
<path d="M502.385 290.55L503.218 290.828L503.01 291.764L502.074 291.418L502.004 293.534L505.126 295.683L508.626 297.104L510.741 297.278L511.295 297.971L513.236 298.671L515.281 299.328H518.47L518.263 298.115L518.817 297.804L519.998 299.086L521.315 298.879L521.523 296.348L520.83 295.029L519.999 294.197L517.258 293.815L513.307 292.983L510.429 291.112L508.8 289.653H507.378L507.691 288.407V287.262H505.957L503.773 288.094V287.505H502.835V288.337L501.835 288.961L502.805 289.967L502.385 290.55Z" fill="#EEEEEE"/>
<path d="M496.042 291.104V291.495L496.761 291.589L496.903 292.277L497.482 290.947L496.982 290.256H496.449L496.042 291.104Z" fill="#EEEEEE"/>
<path d="M399.727 233.318L401.839 234.679L403.339 236.649L404.466 238.198L406.577 239.183L407.562 238.761L410.144 240.169L411.927 240.357L411.035 238.152L409.486 237.352L407.469 235.852L406.624 235.524V234.492L405.639 233.929L403.762 230.363L403.528 228.204L402.448 226.046V224.826L398.695 221.541L397.615 221.401L395.175 217.647L394.375 222.761L393.675 225.718L395.175 228.486L399.727 233.318Z" fill="#EEEEEE"/>
<path d="M409.721 233.98L411.176 235.2L412.676 236L413.145 237.173L414.553 237.502L415.253 236.802L417.176 236.002L417.223 233.938L416.473 232.765L416.755 231.592L417.555 231.264L419.948 233.047H423.186L421.591 231.405L419.948 230.889L418.4 229.763L415.866 229.012L414.177 227.98L413.896 227.18H412.488L409.626 228.353L408.781 229.761L409.481 231.872L409.721 233.98Z" fill="#EEEEEE"/>
<path d="M372.641 329.955L371.985 330.697L372.046 332.422L371.422 332.898V335.307L369.022 337.894L366.717 337.864L366.539 338.369L365.41 338.221V337.477L365.946 337.002L366.094 334.474L367.136 333.463V332.601L368.536 331.56V330.846L369.784 329.48H371.747L372.371 328.854L372.64 329.123L372.641 329.955Z" fill="#EEEEEE"/>
<path d="M363.887 339.916L364.735 339.768V338.579H363.035L362.694 339.979L361.757 340.693L362.144 340.842L363.333 340.515L363.887 339.916Z" fill="#EEEEEE"/>
<path d="M260.931 274.603L258.42 278.218H254.601L254.001 276.511H250.989V274.2L247.968 274.1L246.268 276.11L240.442 272.391L242.25 269.982L240.442 263.752L241.342 254.01L244.959 256.018L247.966 257.224L248.676 254.511L252.393 253.004L253.293 250.192L257.814 249.592L255.502 254.014L256.909 257.327L257.309 264.462L260.931 274.603Z" fill="#EEEEEE"/>
<path d="M291.17 287.36L287.954 283.141L288.254 295.297L288.954 297.307V299.215L283.429 297.909L280.517 294.422L282.929 283.14L276.599 289.569L270.673 291.378V295.296L267.96 294.421L264.445 291.98L265.245 289.38L262.532 288.77V285.349L264.241 283.842L266.673 284.305L272.428 284.841L278.718 279.87H285.006L290.963 281.428L291.863 284.946L291.17 287.36Z" fill="#EEEEEE"/>
<path d="M532.807 319.147L533.568 318.894L533.848 318.494L534.811 318.64L536.765 322.14L539.708 325.083V325.591L541.738 327.519L543.564 328.565L545.595 329.371L549.476 331.35L552.825 333.887L556.525 335.308L559.012 336.297L559.722 337.008V338.2L562.767 339.672L562.893 342.234L562.513 343.097L561.092 343.579L560.331 342.92L559.088 342.869L558.832 342.539V343.3L557.946 343.782L556.926 343.452L555.231 342.995L554.089 340.686L554.013 338.859L551.222 335.759L548.913 334.541L547.188 333.273L544.523 332.029L543.711 331.691L542.291 330.049L540.491 329.67L539.425 329.441L535.443 325.28L534.275 323.352L532.804 321.352L532.807 319.147Z" fill="#EEEEEE"/>
<path d="M571.773 348.305V348.505L572.001 348.733V349.045L572.168 349.273H572.349V349.633L572.78 350.16H573.031L573.187 350.36L573.703 350.324L573.931 350.157H574.411L574.626 350.492L574.698 350.852L575.442 351.667L576.485 351.787L576.006 352.687V353.272L577.337 354.549L576.854 354.707L576.461 354.385L574.861 354.413L574.301 354.973H573.839V355.365L575.001 356.555L575.043 358.207L576.943 358.838L578.398 359.524L579.882 359.51L579.995 359.804H582.543L582.711 359.482L585.259 359.524L585.4 359.804H586.771L587.122 359.356L587.164 358.95L587.472 358.824L587.486 358.516H586.926L585.326 357.816L585.27 357.396H587.692L587.832 357.13H591.011L590.591 356.5H589.191L588.954 356.22L587.792 356.136L587.274 355.758H586.374L577.596 352.222L577.079 351.665L576.524 351.652L576.549 351.442L576.149 351.051L575.816 351.043L574.929 350.122L574.429 350.088L574.454 349.866L573.782 349.218H573.375L572.488 348.295L571.773 348.305Z" fill="#EEEEEE"/>
<path d="M574.238 364.848H576.371L577.45 363.009L576.15 361.709L573.164 360.655H572.564L570.08 359.526H568.8L567.219 358.397V357.519L570.28 358.673L570.606 358.296L569.606 356.238L569.431 355.338L566.488 352.552L565.363 350.796L564.839 350.982H564.239L563.462 350.044H561.806L561.506 353.055L563.89 354.535L563.263 355.062L562.686 355.514L562.71 356.314L563.337 356.941L562.309 357.619L564.467 360.103L567.428 362.161L570.991 364.043L570.822 362.588L569.93 362.151L568.742 361.38L568.148 361.194L568.008 360.34L568.825 359.857H569.15L569.35 360.349L570.911 361.659L572.053 361.724V362.857L572.769 363.637L574.238 364.848Z" fill="#EEEEEE"/>
<path d="M447.357 231.889L445.237 234.15V236.93L448.064 236.223L448.864 237.401L447.922 238.061L448.864 238.767L447.357 238.296L446.813 239.471L452.297 242.617L456.372 243.167L457.163 242.583L460.138 242.617L460.258 241.345L462.218 243.408L465.296 244.336L466.963 246.073H467.891L468.201 245.901L468.94 245.695V244.01L467.94 242.239L467.407 241.964L467.373 240.674L465.705 239.797L463.814 239.711L463.022 238.697L464.528 238.566L465.139 238.726L466.171 239.097L465.93 238.397L464.797 237.906L463.013 237.726L461.719 236.613L461.088 235.881L460.998 235.55L460.216 235.119L459.674 235.309L459.534 235.48L458.943 235.49L458.822 236.744L458.491 236.032L457.085 236.082L456.054 235.4L455.522 234.989L455.171 234.056H454.659L454.538 234.217L453.295 234.287L453.034 234.618L452.564 234.628L451.781 233.986L449.234 233.935L448.944 233.514L449.285 233.153L447.891 231.829L447.357 231.889Z" fill="#EEEEEE"/>
<path d="M463.494 235.066L463.95 235.9L464.106 236.823L464.672 237.346L464.972 237.446L465.607 237.913L466.24 237.313L465.551 236.134L465.906 235.611L465.072 234.844H464.749L464.126 234.199L463.737 234.321L463.76 234.788L463.494 235.066Z" fill="#EEEEEE"/>
<path d="M417.3 185.131L417.583 186.64L417.3 188.24L418.574 190.457L417.017 194.512L418.997 197.955L421.827 199.464L428.57 203.19L430.786 205.076L432.72 206.821L434.135 205.737L435.835 207.482V209.699L438.712 212.293L439.561 215.877L442.484 216.867L443.145 218.612L448.945 221.489L453.145 224.413H454.045L457.097 228.139L458.903 227.809L465.788 232.572L472.202 238.184L473.902 237.052L471.779 232.808L471.921 231.488L464.879 223.046L460.226 218.755L454.613 211.655L450.746 206.963L448.059 200.263L444.144 198.754L440.23 197.198L433.911 195.736L432.402 195.689L429.383 192.576L425.183 191.397L423.815 189.797L422.115 188.429L420.841 184.609L419.615 185.741L417.3 185.131Z" fill="#EEEEEE"/>
<path d="M522.972 355.301V353.92L524.052 353.099L524.972 352.139H525.854L526.735 352.421L525.492 353.621L524.412 355.699L522.972 355.301ZM394.242 373.86L395.729 372.324H398.246L400.016 368.269L405.927 361.459L408.986 356.692L413.43 350.476L414.92 352.154V354.485L405.511 366.313L402.903 367.805L401.134 372.325L398.527 374.55L394.242 373.86ZM447.097 334.455V333.527L448.697 334.368L451.86 335.444L452.22 336.329L453.58 336.286L455.861 336.848L456.622 337.928L458.262 338.81L459.545 339.488L460.304 340.97L462.104 341.01L463.629 340.891L465.267 341.612L467.71 342.533L470.069 343.693L472.312 343.853L475.232 345.134V346.334L474.47 346.092L472.149 345.413L470.629 345.174L469.349 344.534L467.309 343.973L468.068 345.815L468.19 346.815L468.668 348.015L469.709 347.935L471.792 347.335L473.552 348.216L475.674 348.138L478.594 349.256L477.994 349.698L475.794 349.936L473.675 349.576L471.194 349.656L473.834 350.656L473.313 351.015L470.555 351.656L469.755 350.578L469.076 350.096L468.195 349.814L467.314 348.334L466.67 347.493L467.314 346.893L466.35 345.53L465.192 345.292L463.952 344.611H463.18L461.461 343.051H460.58L459.862 342.41L458.462 343.051L457.099 342.33L453.899 341.809L450.46 340.528L448.46 339.05L448.018 337.206L445.335 336.806L444.098 335.967L442.216 335.688L440.174 334.844L437.933 334.123L438.733 333.523H440.293L441.893 333.762L444.056 334.562L446.135 335.438L447.097 334.455ZM311.28 313.182L312.238 309.582L310.561 304.667L311.761 300.284V294.427L314.039 290.774L317.039 290.012L314.88 293.047L315.718 295.447L314.28 298.327L315.358 300.293L312.603 304.918L315.717 308.151L318.835 308.393L320.63 301.442L323.03 300.293L328.783 298.564L326.505 302.88L324.71 303.359L323.991 310.67L314.521 314.623L311.28 313.182ZM376.266 299.582V297.367L374.45 295.499L371.678 293.688L370.266 292.88L368.703 290.056L369.258 289.403L377.574 297.064V300.289L376.266 299.582ZM358.255 275.082L353.971 272.839L355.127 271.887L356.417 272.705L360.227 273.45L362.696 274.22L363.421 274.105L365.197 273.217L369.153 274.512L372.183 274.956L374.583 274.087H377.392L378.981 275.142L380.832 275.659L381.201 274.44H379.428L379.538 273.218L381.979 272.997L384.197 272.034H385.825L384.382 274.365L382.312 276.065L381.163 276.546L384.048 277.026L386.784 278.726L387.559 279.488H382.98L381.28 278.506L380.43 278.838L379.507 279.871L379.471 280.759L374.371 280.945L373.371 280.689L372.962 281.574L371.928 280.574L372.928 278.652L374.797 279.169L374.962 278.061L376.443 278.023L377.995 279.318L378.958 279.487L379.177 278.799L378.883 278.244L379.731 277.286L377.106 276.102L375.332 275.733L373.298 277.654L372.189 278.023L367.789 276.137L364.831 275.547L362.701 276.247L358.255 275.082ZM418.761 272.16L416.186 271.991L414.605 271.218L416.052 270.579L419.885 270.899L422.911 272.394L418.761 272.16ZM405.321 264.793L405.673 263.48L405.859 262.303L405.487 261.631L406.732 260.891L408.045 261.227L410.045 262L412.112 263.379L414.769 263.868L414.335 264.861V265.767L413.09 265.936L412.754 266.103H411.98L410.366 264.59L409.966 263.664L408.922 262.605H406.937L406.565 262.943V264.153L407.106 264.792V265.7L405.321 264.793ZM338.712 260.055L334.357 259.627L332.48 256.215L328.78 253.568L331.88 254.336L334.955 257.709H337.518L341.101 259.034L348.787 258.58L351.007 256.727L356.131 256.383L360.312 256.898L362.697 258.58L363.958 259.273L366.429 261.704L370.62 263.636L372.842 264.387L374.393 264.85H375.61L376.489 265.477H379.68L378.796 266.4L380.016 266.86L379.637 267.826L379.008 267.154L378.548 267.826L376.368 266.149L374.48 265.312L372.76 265.354L372.3 266.154L368.278 266.069L367.058 265.146L364.587 264.267L362.699 263.116L360.399 259.291L352.116 259.634L347.251 261.686L342.47 262.451L338.712 260.055ZM276.012 250.679L276.228 249.079H277.915L276.532 251.412V252.751L274.244 254.303L273.508 256.936L273.468 259.873L271.826 262.722L271.739 268.983L267.769 269.368L265.918 266.368L267.292 262.942L267.553 261.732H268.589L270.964 258.452L271.31 254.567L273.21 252.105L274.591 252.321L276.012 250.679ZM357.424 244.865L361.147 243.441L362.696 242.471L365.254 240.871L364.432 244.046L362.696 244.993L359.724 246.618L357.424 244.865ZM222.403 239.084V234.206L224.412 232.63H226.228L224.412 235.401L223.026 239.801L222.403 239.084ZM356.165 225.315V222.25L354.246 220.224L356.438 214.802L361.531 212.117H365.254L366.24 210.806L367.608 212.117L368.978 212.941L368.485 213.268L362.697 214.48L362.461 214.53L358.738 217.43L357.754 220.773L357.862 226.739L356.165 225.315ZM315.537 223.978L314.783 221.978L316.957 211.909L315.702 207.278L314.29 202.037L312.623 196.199L308.537 188.609V182.687H310.955V188.694L315.294 196.866L317.517 206.46L319.443 209.422L319.664 212.173L317.517 213.458L317.717 216.563L316.43 219.314L317.184 224.771L315.537 223.978ZM246.959 170.144L249.823 173.487L241.229 172.827L239.523 170.99H241.229L244.974 171.643L246.959 170.144ZM313.541 172.265L316.794 165.511L317.516 172.35L313.027 174.684L313.541 172.265ZM323.299 143.407L329.137 148.162L334.905 149.496L336.476 149.33V151.83L329.471 149.495L323.215 147.909L319.88 148.494L315.209 149.744L313.027 153.498V156.585L309.62 160.921L305.784 163.59L304.534 168.011L306.869 173.511L308.537 177.511L306.703 178.43L305.03 173.424L301.03 170.924L296.03 172.258L300.701 168.258L303.873 162.169L309.626 157.832L311.045 152.746L314.465 149.241L313.033 146.406L317.884 147.325L323.299 143.407ZM219.558 146.088L216.4 140.724L219.631 141.753L221.174 144.102L222.203 145.278L217.98 150.933L219.558 146.088ZM310.93 132.117L312.584 130.717L313.73 129.317V136.069L311.184 137.591L310.93 132.117ZM322.548 123.474V128.854L323.715 130.898L321.881 135.651L320.046 136.069L322.548 123.474ZM199.008 134.447L199.656 127.911L198.356 123.518V119.405L201.056 125.205L202.014 128.856L200.495 131.403L198.916 142.837L197.397 144.359L199.008 134.447ZM313.734 124.103L315.834 119.266L316.978 121.176L319.524 122.13L316.254 122.894L315.704 124.55L313.734 124.103ZM181.87 89.361L177.86 85.861V82.191L182.979 87.391L185.368 92.256L184.168 93.962L181.87 89.361ZM117.528 98.061L112.562 86.885L111.197 78.609L112.19 77.616L114.135 81.877L114.175 84.444L116.327 87.961L117.651 93.798L117.569 95.619L118.81 96.281L119.059 99.343L117.528 98.061ZM156.36 73.712L154.06 62.826L157.727 65.558L158.667 73.712L162.767 84.754L165.767 95.588L163.787 96.953L156.36 73.712ZM113.389 75.171L109.997 70.618L110.369 63.5L109.129 61.8L109.998 61.387L111.57 64.946L111.529 67.058L112.356 68.341L111.693 69.873L117.322 78.191L116.207 78.607L113.389 75.171ZM47.1692 2.92697L46.1802 1.64097L44.1342 1.71597L41.3332 0.426974L34.7412 3.22697L33.9072 6.40997L28.3742 5.87897L24.5882 7.24897L19.1312 12.476H15.7222L13.8222 14.068L11.9282 12.476L8.74422 13.006V15.583H5.03822L1.93022 17.327L0.568223 15.584L0.0532227 17.644L1.78022 18.727H2.91222L3.13722 23.264L5.40622 25.758L7.40022 29.977L6.40022 32.377V34.555L7.62422 35.008L8.80322 32.65L9.57422 35.237L13.2492 36.637L13.9302 35.237H17.7402L16.4692 36.778L16.7882 38.594L12.9782 39.229L11.6162 42.129L14.1572 46.165L18.4652 47.844L18.7832 48.796L21.8232 49.839L21.8672 51.563L20.6432 52.698L24.3162 56.825L23.2262 58.867L31.5262 64.084L33.5262 67.711L35.5202 70.389V68.857L37.8342 68.766L38.4242 69.766L41.9622 74.711L44.0042 72.261L41.1042 67.588L43.3732 65.048L44.6442 60.692L47.5932 58.061L51.4932 58.334L48.9092 59.741L46.1862 61.647L44.3272 65.227L46.3272 70.352L51.2272 69.809L54.9932 66.95L56.9432 68.45L61.0262 67.317V64.867L61.8442 64.413L66.4692 64.822L64.9692 65.822V67.274L69.4132 67.727L70.0942 66.094L75.7182 63.194L84.7022 59.066L89.0552 58.793L91.0972 57.614L93.8652 58.476L95.6342 55.936L89.2802 51.027L86.4682 51.572L79.9802 50.303L73.8082 49.896L67.1412 47.265L57.4352 43.772L51.7632 42.365L46.8632 40.913L47.0882 39.597L56.3412 41.14L59.5622 43.499L68.9072 45.999L74.6672 47.134L85.5562 46.817L87.2332 48.217L93.4462 48.036V49.527L95.7162 53.066L101.204 48.304L104.063 50.39L106.874 50.21L110.865 47.804L111.319 50.979L103.519 52.022L99.1192 53.338L100.619 58.463L96.9922 56.149L95.4042 58.238L94.0892 61.327L92.9992 60.646H90.9132L92.0042 62.459L93.6802 63.776L95.9472 66.59L102.847 76.205L103.571 80.742L106.883 84.142L109.283 86.5L109.739 92.4L108.785 92.444L108.285 87.817L105.744 85.594L102.522 83.6L99.6662 77.158L93.5422 66.858L87.9192 67.72L84.0622 67.584L81.7952 67.084L73.6802 68.721H71.8622L69.4112 72.486L63.8322 70.309L59.7962 72.848L56.6672 71.079L54.4892 71.396L53.6722 74.981L56.2592 77.431L52.6292 81.785L50.5872 84.46L51.4942 86.821L50.5432 90.086L48.4572 91.627L52.3122 96.027L55.3522 95.437L58.2082 92.853L60.5672 92.216L62.8802 97.343L65.9652 97.616L68.7802 95.168H70.7802L77.1742 99.974L69.3282 96.617L67.0582 100.202L65.4252 100.836L63.2482 101.245L67.1952 106.645L70.8692 108.823L74.3182 107.688L77.1302 109.501L75.1302 110.182L72.0452 112.858L69.4612 113.858L70.0952 117.079L68.2822 117.579L66.5582 118.895L63.5182 123.568L60.4802 125.568L56.2142 128.561V130.285L61.6592 134.821L65.4692 136.545L69.5052 137.045L80.0302 127.474L87.1972 122.121L88.8302 118.811L90.6432 117.949L88.5572 122.305L86.7442 125.888L88.1442 130.469L90.6382 130.379L91.4122 132.329L92.9122 130.015L95.0432 129.742L97.8542 129.288L101.167 126.023L101.937 123.846L104.659 120.527L112.597 117.943L107.88 120.619L106.291 123.884L103.977 125.563L100.621 128.331L99.6212 131.869L102.121 134.5L102.755 130.827L106.43 128.468L110.738 127.468L110.965 128.861L105.022 130.779L103.522 134.364L108.693 139.626L109.101 142.526L112.823 145.474L118.809 146.874L125.887 142.61L127.287 141.022L126.018 139.522L125.882 138.122L127.061 135.897L128.012 133.086L127.559 130.501L125.48 128.858L124.936 130.73L123.536 127.737L124.17 126.285L122.582 122.611L123.399 117.938L123.899 123.927L126.667 126.285L131.611 131.185V133.227L133.517 135.177L139.186 133.777L142.907 132.642L146.4 129.059L144.04 125.747L146.898 125.928L147.443 131.328L147.26 133.415L142.86 134.73L140.46 137.408L143.817 140.264L141.23 140.309L139.099 138.267L136.922 139.582L138.647 143.304L135.9 147.07L136.922 147.66L138.101 146.887L142.863 146.478L148.125 145.618L145.132 147.659L141.956 147.386L140.368 148.111L140.007 150.242L142.274 151.602L137.603 150.786L134.335 153.009L130.116 157.317L132.116 159.133L132.661 162.443L135.654 165.799L138.104 171.832L142.051 175.509L146.451 173.829L152.166 175.829L157.337 176.102L156.976 173.651L154.754 170.151L151.987 162.577L152.393 161.353L154.663 165.253L155.842 170.153L158.342 171.653L159.113 173.513L161.699 175.643L164.42 173.513L163.649 165.483L163.605 159.133L163.151 154.052L163.56 153.009L165.509 154.87L164.919 158.725L166.371 161.448L165.784 164.669L166.284 172.652L168.823 173.333L177.033 170.792L179.167 167.346L177.397 160.724L172.633 159.452V154.872L173.949 155.189L174.858 157.909L178.713 159.77L180.619 166.62L182.977 170.793L186.832 173.334L186.379 176.146L181.3 170.975L179.62 170.155L177.943 173.242L172.272 175.601L168.008 176.78L167.282 178.549L166.239 179.139L163.339 178.414L160.163 178.778L157.488 182.361L161.343 186.089H163.657L162.932 182.678L165.246 185.854L168.467 188.123L170.553 188.53L173.228 185.173L177.495 183.724L183.933 184.675L182.573 186.581L177.222 185.581L175.453 186.76L175.996 188.982L173.275 189.347L169.98 192.327L166.17 191.92L164.131 194.504L160.818 192.963L159.318 193.37L160.718 196.454L164.665 199.542V201.311L168.386 205.936L171.652 206.662L170.98 207.527L172.114 209.341L173.338 208.615L175.154 211.615V212.658L176.105 215.558L178.605 216.42L182.371 218.595L186.498 218.053L191.988 222.453L198.927 220.366L199.107 218.097L198.107 209.161L199.47 209.117L198.744 204.989L197.744 204.035L195.975 199.679V197.321L197.744 197.185L197.563 193.285L195.657 188.431L193.299 181.083L192.799 175.14L189.033 175.095L188.772 173.78L193.298 172.191L194.658 163.572L195.793 165.886L195.746 170.695L195.338 177.907L195.975 183.531L196.384 186.389L198.017 191.379L199.332 197.003L202.188 202.629L206.271 203.444L208.538 201.45L212.123 200.45L213.03 198.998L209.72 195.598V193.327L210.31 192.646L211.034 195.646L213.665 197.323L215.027 197.234L216.886 194.466L214.892 191.29L214.755 189.566L212.261 184.804L215.707 186.704L218.021 186.387L218.565 186.887L216.071 189.835L217.431 191.287L222.103 189.835L223.828 191.515L223.51 192.558L221.61 192.013L219.068 192.694L215.803 200.494H213.58L212.445 204.213L215.667 207.662L218.567 210.062L221.743 208.61L226.052 208.384L225.779 209.784L228.002 211.147L232.358 210.83L238.118 210.466L242.518 207.698L249.381 205.792L255.129 205.52L257.443 208.741L257.534 211.01L259.167 212.868L261.434 214.456V217.224L258.349 213.686L256.443 211.736L256.035 209.105H254.222L250.322 209.92L250.097 210.693L247.466 209.65H244.972L240.435 211.65L233.813 212.194L228.687 213.146L225.787 214.146L224.11 212.746L219.8 212.654L216.807 213.789L215.807 211.973H214.219L213.084 216.012L209.14 220.865H206.779L204.556 222.725L205.282 228.168L204.33 230.299L206.324 232.749L204.194 242.549L206.688 244.499L203.819 249.527L206.903 253.838L207.176 255.562L208.856 256.65L214.208 256.425L215.523 255.29L216.157 251.841L215.157 249.891L213.568 249.21L213.341 247.31L217.151 243.5L217.696 241.141L221.144 240.099L222.144 240.961L220.744 243.138L219.744 244.727L222.828 248.353V250.895L228.271 252.255L230.085 255.974L232.173 256.747L234.26 259.921L237.753 260.466L238.977 258.066L238.026 254.166L238.751 251.807L239.528 249.407L237.57 245.227L235.528 245.998L234.574 247.998L232.174 249.222L233.807 246.241L236.347 243.282L234.353 235.208L234.534 234.165L236.166 237.565L238.934 246.24H239.98L240.44 250.918L246.327 253.575L247.969 251.682L252.193 249.304V247.458H259.675L260.819 245.17L262.228 247.545L258.882 250.275L257.914 253.268L259.587 257.053L259.85 262.507L263.016 265.942L265.922 266.379V270.25L263.016 272.275L265.307 279.875L268.826 281.426L273.313 279.049V278.257L275.513 275.088V273.594L280.003 272.537L281.938 274.825V277.113L284.668 275.882V270.953L286.604 268.753L287.133 263.298L290.917 258.809V260.569L288.717 263.827L289.156 268.056L287.923 270.513L286.868 278.964L289.333 279.877L293.207 277.82L295.845 276.673L293.82 281.868L293.733 287.768L294.348 290.498L289.506 295.865L292.149 297.977V294.427H295.844L297.344 295.066L298.93 291.723L300.423 290.013L302.449 284.507V291.459L304.736 290.669V286.443L306.936 284.508L309.226 284.068L311.162 281.691V285.915L308.522 286.18L306.76 286.88L305.971 291.897L303.241 295.416L303.556 297.134L302.356 297.201L301.291 296.537L296.701 299.662L296.37 301.462L293.77 302.062L295.97 304.324L295.57 305.787H293.906L291.506 303.128L287.58 300.328L285.252 301.128L284.787 303.388L283.187 301.459L282.323 303.125L281.258 301.593L281.923 299.399L280.123 300.86L278.723 299.66L278.19 295.471H275.928L276.461 298.795L277.725 301.795L279.55 302.395L280.05 305.188L284.439 308.314L288.233 309.314L292.889 308.649L299.676 314.569L303 319.695L306.862 320.623L310.852 326.813L316.974 333.065L318.304 332.065L320.635 333.594H323.761L332.411 324.082L336.867 318.958V315.765L337.332 313.831L343.323 315.431L347.38 315.631L354.501 313.503L353.98 314.627L346.594 316.755L341.47 317.955L342.07 320.155L344.27 319.955L344.602 324.481L340.876 325.546L346.063 325.877L348.924 328.855H351.654L352.786 329.936L356.179 323.813L355.579 320.088L354.779 318.958L358.841 317.826L359.241 313.236L358.376 311.772V310.907L360.239 310.84L354.782 304.253L358.775 306.783L360.239 308.183L361.039 312.176L360.639 315.237L360.371 317.231L356.645 320.957L358.973 323.041L359.638 319.827L360.371 318.827L362.702 321.054L363.587 321.787L363.622 322.599L364.247 323.039L364.28 324.514L364.923 325.276L368.311 325.107L368.48 324.807H369.161L370.683 323.383L372.091 321.943L372.991 321.029L373.449 321.621L374.499 321.809V322.688L373.736 323.348L370.89 323.5L369.723 324.687L369.502 325.397L370.585 326.585L371.28 326.958L371.501 326.516H372.465L373.312 325.753L373.432 324.738L374.82 324.669L375.227 325.226L376.173 325.296L376.293 325.55L375.598 326.142L375.752 326.99L377.411 326.922L378.156 326.396L378.29 325.414L378.767 325.041L378.715 324.16L378.121 323.96V323.044L375.598 320.37L374.43 320.248L372.751 318.199L374.751 318.499L375.479 318.807L376.25 319.467L378.223 320.783L378.665 321.191L380.03 323.085L380.064 324.02H380.378V324.805L381.691 323.423L387.463 323.566L392.624 318.252L392.729 316.952L392.767 316.765H392.746L392.767 316.508L393.229 315.653L393.004 311.384L391.844 311.443L390.935 310.229L393.143 309.658L396.195 306.181L396.151 304.527L397.558 303.127L396.997 302.109L398.82 298.846L398.567 294.846L396.955 292.828L396.746 284.519L396.278 283.967L395.937 280.067H397.718L398.609 281.507V284.093L399.086 290.96L400.986 294.06L400.645 295.491L401.705 296.509L400.857 298.12L399.788 299.431L399.544 300.619L399.086 302.527L398.693 304.727L398.015 306.465L396.577 308.328V310.745L395.599 311.298V313.927L394.671 316.186L394.055 318.124L393.624 320.278L388.455 325.95L387.736 325.45H382.425L380.414 326.66L379.841 328.177L380.414 331.05L379.265 331.193L376.894 330.402L375.602 333.059L376.824 335.93L377.254 338.66H376.18L373.142 340.165H370.149L368.498 341.673L367.566 343.684L365.628 345.693L364.406 347.704L362.706 348.759V356.902L365.062 354.996V357.042L363.676 360.742L365.654 366.478L368.426 367.799H370.799L377.135 369.58L383.928 371.823L392.636 375.979L396.923 377.828L399.092 378.686L402.134 381.738L404.64 385.414L407.346 386.4L409.456 388.843L415.527 391.482L420.474 392.999L427.074 394.119L431.296 396.826H434.858L436.732 394.368L439.688 393.628L442.435 391.305L443.759 395.054L440.008 397.115L437.845 399.123L439.111 399.967L444.928 401.393L445.787 402.048L453.011 403.709L456.037 407.146L464.708 411.074L474.121 414.017L482.628 417.289L487.128 418.748L488.846 421.548L492.853 421.466L495.722 424.738L498.501 423.512L501.691 424.494L504.473 425.067L506.38 427.684L513.228 425.803L513.717 426.949L517.645 428.666V425.307L520.509 423.425L521.653 424.325L524.843 422.607H527.38L527.462 425.471L526.645 426.289L524.316 426.536L522.216 425.063L520.26 425.881L519.548 427.681V430.053L520.424 431.77L523.195 432.917L525.006 434.063L527.297 434.308L528.441 431.444H530.161L532.451 430.379L531.81 432.917L532.204 434.881L534.659 435.454H536.459L538.319 433.57L536.459 431.444L537.807 429.727L538.319 428.01L539.63 425.717L541.368 422.855H544.641L543.903 421.298L545.787 417.946V415.655H546.849L548.2 414.674V413.366H549.3L552.244 417.129L555.873 415.818L554.945 417.618L558.591 419.991L564.354 417.863V415.243L565.335 413.937L566.48 410.5L564.027 406L561.981 405.018L559.319 402.809L558.591 402.044L556.798 400.122L557.069 399.249L556.796 397.919L557.522 395.986L556.768 394.986L557.161 394.41V393.41L556.705 392.837V390.417L556.405 388.298L554.169 387.512L553.958 386.697L553.716 385.276L552.353 383.249V381.343L552.68 380.527L553.952 379.285L553.801 376.595L552.561 375.806L550.861 374.836L551.74 372.964L552.04 374.202L553.794 374.354L552.676 372.874L553.376 372.298L552.255 371.722L550.714 371.207L549.745 370.662L548.021 370.24L547.476 370.755L546.355 370.571L544.055 371.241L543.936 371.906H544.511L545.211 372.299L544.727 373.299H544.127L543.643 373.843L544.243 374.48L544.605 375.115L545.695 376.174L546.029 375.779H546.876L547.601 376.479L548.024 377.386L547.724 378.323L546.333 378.958L544.759 380.351L544.517 381.981H546.636L545.365 383.647L544.397 385.068L544.606 387.004L546.058 388.064L545.727 388.7L546.21 390.6V391.357L545.364 391.691L545.395 392.779L546.21 393.355L545.095 393.265V391.179L544.639 390.6H543.852L543.396 390.845L543.18 391.927L542.454 392.927L541.88 393.227V394.317L539.945 394.949L538.129 395.435V396.614L538.493 398.247V400.608L537.793 402.043L537.093 404.251L536.921 402.051L537.121 401.727L537.065 401.032L537.665 400.569L537.47 399.369L537.491 398.749L536.448 397.515L536.274 396.878L535.674 395.467L535.984 394.849L537.161 393.549H538.148L538.904 392.931L540.257 392.8L540.351 392.161L540.776 391.561L540.311 390.341L540.04 389.493L540.102 387.987L539.963 387.409L539.847 386.672L540.194 386.385L540.31 385.302V384.045L539.131 382.036V381.301L537.1 379.447L536.116 377.96L536.177 377.07L536.64 377.011L537.973 377.669L538.901 376.894L538.65 376.494L538.901 375.702L538.823 375.085L538.901 373.365L538.591 372.765V371.24L537.334 370.195L536.197 369.422L536.058 368.416L536.387 367.74L535.787 366.989L534.201 365.615L533.04 364.572L531.633 364.172L531.316 363.727L529.279 363.327L527.125 362.667L527.352 361.685L528.491 362.185L528.754 361.967L527.316 361.091L527.823 360.291L528.378 359.306L529.391 359.732L530.906 360.979L531.36 360.742V360.185L531.623 359.015L532.738 361.25L533.431 361.35L533.859 362.228L534.681 362.895V361.595L533.591 359.707V358.882L533.964 358.565L535.054 357.503V356.836L535.954 357.259V356.465L535.313 355.717L535.635 354.55L535.395 353.65L534.275 353.35L533.161 352.584L532.416 352.608L531.697 353.54L531.48 355.188L531.132 353.888L530.547 351.654L530.602 350.964L531.402 350.271H532.811L533.183 349.421L532.412 347.879L532.863 347.428L532.463 345.91L529.592 344.369L529.433 343.279L527.84 342.694L526.908 341.737V340.591L526.189 339.769L524.859 340.591L524.566 339.791L524.14 338.382L523.64 338.682L523.349 338.226L523.64 337.592L523.109 337.03L521.7 336.443L520.77 335.249V334.425L520.424 334.025L520.264 332.191L519.734 332.031L520.051 334.025H519.574L519.332 333.147L518.378 332.003L516.384 330.778L515.322 328.464L511.757 325.915L509.675 324.527L509.01 322.373L507.441 320.353L505.287 318.144L503.614 317.19L503.692 316.364L504.81 316.575L506.48 318.202L507.65 318.602L509.856 320.967L511.641 321.526L511.902 322.484L512.996 323.76L512.806 322.669H514.19L514.298 321.769L513.978 320.517L514.083 319.746L512.406 317.729L511.184 317.382L510.548 316.771L511.027 315.971L512.462 315.814H513.88L514.704 314.588H515.557L515.717 313.819L514.308 312.757V312.119L513.349 311.001V310.364L512.339 309.991V309.167L511.303 308.582V307.457L509.92 304.771L509.149 302.971V300.071L507.74 297.92L506.169 297.998L504.71 297.413L502.929 297.518L501.891 296.508L500.479 295.338L500.159 293.825L499.738 293.24L499.816 295.42L500.64 297.574L498.862 297.227L497.904 298.319L497.004 298.182L496.736 297.6L496.098 296.721L495.941 295.821L495.915 294.944L496.528 294.012L494.928 292.337L494.264 291.275L493.627 288.641L493.385 288.241H492.485L491.285 287.417L491.233 286.517L492.403 285.854H493.57L494.557 285.321L493.48 282.943H492.656L491.806 282.253L492.206 281.879L492.019 281.479L490.954 281.348L490.291 281.033H489.68L489.071 280.733L487.5 281.033L486.093 280.312H485.32L484.655 279.512L483.218 279.012L481.649 278.375L480.004 278.43L478.994 277.922L477.582 278.35L475.91 278.164L474.101 278.43L472.743 278.801L471.067 278.294L468.622 277.686L467.322 276.486L467.022 275.686L468.887 275.5L470.854 275.817L471.861 276.376L474.737 276.484L475.399 275.66L475.24 274.678L474.124 273.851L473.408 272.367H472.608L472.237 271.994L471.537 271.912L470.927 272.367L470.447 271.886L469.784 271.486L469.514 270.686L468.135 268.931L467.335 268.689L467.655 269.305L467.281 269.862L466.429 269.836L466.245 269.408L465.099 268.208L464.491 268.266L466.004 270.466L466.429 270.52V271.661H465.313V271.079L464.7 270.279L464.091 270.223L463.803 270.935L463.603 270.32L461.733 268.251L462.175 269.444L461.296 270.001L460.096 269.559L459.168 267.9L459.488 266.556L456.976 265.68L456.833 266.002L455.983 266.439L455.633 265.857H454.789L454.089 266.909H453.33L452.513 265.596L451.084 263.961L449.745 263.611L448.371 262.011L445.134 261.339L442.824 260.463L441.133 260.931L438.157 261.339L436.347 260.405L435.48 259.127L434.345 258.615L431.609 259.127L429.001 257.574L423.267 256.139L420.312 253.099L417.62 251.837L416.751 249.448L412.451 245.755L409.019 243.8L407.541 241.975L406.109 243.453L404.676 243.8L403.504 242.322L401.415 241.658L400.983 242.668L399.721 241.658L399.895 240.107L399.244 238.585L399.895 237.109L398.288 235.409L397.988 236.409L396.859 235.756L395.034 233.715V232.063L393.741 231.793L389.769 223.169L389.576 219.779L386.376 214.162L385.697 211.162L383.178 210.385L378.917 206.899L379.69 204.864L385.99 207.479L388.99 206.22L392.479 201.863V200.698L389.961 199.441V198.083L385.117 194.305L380.565 190.722L376.98 186.074L375.272 184.831L372.866 181.807L370.735 179.54L368.605 177.821L364.515 174.454L363.829 171.189L362.109 169.023L359.428 168.301L356.68 164.557L356.405 161.257L353.243 155.827L351.251 148.543L347.951 142.358L346.335 138.268L344.411 138.577L343.587 136.961L341.867 134.934L341.456 131.325L335.924 131.703L333.724 127.581L333.966 127.271L335.546 128.577L337.16 128.405L336.749 126.996V125.209L335.476 123.388L336.2 122.014L335.133 120.914L334.915 116.614L333.037 111.184L332.763 108.16L331.763 104.724L328.563 103.624L328.391 99.602L328.804 98.296L326.948 95.204L328.184 94.173L327.256 93.898L324.956 94.826L323.582 94.448L322.723 93.074L320.97 92.592L319.906 92.831L319.149 92.248L315.884 90.048L313.48 88.101L309.014 88.273L304.88 89.127L303.849 88.648L302.268 88.681L300.86 89.472L298.488 89.919L295.088 89.059H294.229L290.794 88.373L288.215 86.035L285.535 85.142L282.511 85.622L280.998 85.45L276.153 84.45H273.06L271.309 85.627L271.035 82.364L268.904 80.612L264.232 77.45L262.616 77.107L261.552 76.144L257.358 74.044L254.439 73.288L252.823 72.36L250.552 72.26L249.377 73.094L246.154 71.427L239.335 69.912L236.08 70.976L233.353 69.076L225.699 68.092L220.319 69.076L213.346 68.32L209.406 67.258H204.63L202.887 68.327L195.987 64.916L188.408 61.279L183.56 59.157L175.08 57.027L171.747 60.136L170.761 58.089L173.944 55.968L168.944 54.755L166.976 55.134L159.397 54.603L160.306 52.86L157.806 50.436L151.062 48.617L146.517 49.298L142.5 48.39L148.26 46.949L144.546 45.737L141.818 46.571L139.772 45.662L135.453 45.132L134.166 42.332L128.78 39.827L124.157 37.48L117.111 33.388L115.065 30.811L110.898 31.492L110.517 28.159L113.169 23.235L109.457 21.794L108.32 23.006V24.974L104.909 26.945V30.734L102.409 24.445L104.153 18.457L97.9382 17.327L79.6002 9.21697L69.6002 6.11097L63.6142 3.91097L61.9492 4.74497L61.0372 1.33697L53.6852 0.0479736L47.1692 2.92697Z" fill="#EEEEEE"/>
<mask id="mask0_732_79" style="mask-type:luminance" maskUnits="userSpaceOnUse" x="0" y="0" width="592" height="436">
<path d="M591.02 0H0V435.5H591.02V0Z" fill="white"/>
</mask>
<g mask="url(#mask0_732_79)">
<path d="M564.023 406L561.977 405.018L559.316 402.809L558.588 402.044L556.795 400.122L557.066 399.249L556.793 397.919L557.518 395.986L556.764 394.986L557.157 394.41V393.41L556.701 392.837V390.417L556.401 388.298L554.165 387.512L553.954 386.697L553.712 385.276L552.349 383.248V381.342L552.68 380.528L553.952 379.286L553.801 376.596L552.561 375.807L550.861 374.837L551.74 372.965L552.04 374.203L553.794 374.355L552.676 372.875L553.376 372.299L552.255 371.723L550.715 371.208L549.747 370.663L548.023 370.241L547.478 370.756L546.357 370.572L544.057 371.242L543.938 371.906H544.513L545.213 372.299L544.729 373.299H544.129L543.645 373.843L544.245 374.48L544.606 375.115L545.696 376.174L546.03 375.779H546.877L547.602 376.479L548.025 377.386L547.725 378.323L546.334 378.958L544.76 380.351L544.518 381.981H546.637L545.366 383.647L544.399 385.067L544.608 387.003L546.06 388.063L545.729 388.699L546.212 390.599V391.356L545.366 391.69L545.396 392.778L546.211 393.354L545.096 393.264V391.178L544.64 390.599H543.853L543.397 390.844L543.18 391.928L542.454 392.928L541.88 393.228V394.318L539.945 394.95L538.129 395.436V396.615L538.493 398.248V400.609L537.793 402.044L537.093 404.252L536.921 402.052L537.121 401.728L537.065 401.028L537.665 400.565L537.47 399.365L537.491 398.745L536.447 397.511L536.273 396.874L535.673 395.463L535.983 394.845L537.16 393.545H538.147L538.903 392.927L540.256 392.796L540.35 392.157L540.775 391.557L540.31 390.337L540.039 389.49L540.101 387.984L539.962 387.406L539.846 386.669L540.193 386.382L540.308 385.299V384.042L539.129 382.033V381.298L537.099 379.444L536.115 377.957L536.176 377.067L536.639 377.008L537.972 377.666L538.9 376.891L538.649 376.491L538.9 375.699L538.822 375.082L538.9 373.362L538.589 372.762V371.237L537.332 370.192L536.195 369.418L536.056 368.413L536.385 367.736L535.785 366.985L534.199 365.611L533.038 364.568L531.632 364.168L531.315 363.724L529.278 363.324L527.124 362.664L527.351 361.682L528.491 362.182L528.754 361.964L527.316 361.088L527.823 360.288L528.378 359.303L529.391 359.729L530.906 360.976L531.36 360.739V360.182L531.623 359.012L532.738 361.247L533.431 361.347L533.859 362.225L534.68 362.892V361.592L533.59 359.704V358.879L533.963 358.562L535.053 357.5V356.833L535.953 357.256V356.462L535.312 355.714L535.634 354.547L535.395 353.647L534.275 353.347L533.161 352.581L532.416 352.605L531.697 353.537L531.48 355.188L531.132 353.888L530.547 351.654L530.602 350.964L531.402 350.271H532.811L533.182 349.421L532.411 347.88L532.862 347.429L532.462 345.912L529.591 344.37L529.432 343.28L527.839 342.695L526.906 341.738V340.588L526.187 339.765L524.857 340.588L524.564 339.788L524.138 338.379L523.638 338.679L523.347 338.223L523.638 337.589L523.107 337.027L521.698 336.44L520.768 335.246V334.422L520.422 334.022L520.262 332.188L519.732 332.028L520.049 334.022H519.572L519.33 333.144L518.376 332L516.382 330.776L515.32 328.462L511.756 325.913L509.675 324.528L509.01 322.374L507.441 320.354L505.287 318.145L503.614 317.191L503.692 316.365L504.81 316.576L506.48 318.202L507.65 318.602L509.856 320.967L511.642 321.526L511.903 322.484L512.997 323.76L512.807 322.669H514.191L514.299 321.769L513.979 320.517L514.084 319.746L512.407 317.729L511.185 317.382L510.549 316.771L511.028 315.971L512.463 315.814H513.871L514.695 314.588H515.548L515.708 313.819L514.299 312.757V312.118L513.34 311V310.363L512.33 309.99V309.166L511.294 308.581V307.463L509.911 304.777L509.14 302.977V300.077L507.731 297.926L506.16 298.004L504.701 297.419L502.92 297.524L501.882 296.514L500.47 295.344L500.15 293.831L499.73 293.246L499.808 295.426L500.632 297.58L498.854 297.232L497.896 298.324L496.996 298.187L496.728 297.605L496.089 296.726L495.932 295.826L495.906 294.949L496.519 294.017L494.919 292.342L494.255 291.28L493.618 288.646L493.376 288.246H492.476L491.276 287.422L491.224 286.522L492.394 285.859H493.561L494.548 285.326L493.48 282.943H492.656L491.806 282.253L492.206 281.879L492.018 281.479L490.953 281.348L490.29 281.033H489.68L489.071 280.733L487.5 281.033L486.092 280.312H485.319L484.654 279.512L483.217 279.012L481.648 278.375L480.003 278.43L478.993 277.922L477.581 278.35L475.909 278.164L474.099 278.43L472.741 278.801L471.065 278.294L468.62 277.686L467.32 276.486L467.02 275.686L468.885 275.5L470.852 275.817L471.859 276.376L474.735 276.484L475.397 275.66L475.238 274.678L474.122 273.851L473.406 272.367H472.606L472.235 271.994L471.535 271.912L470.925 272.368L470.445 271.886L469.782 271.486L469.512 270.686L468.133 268.931L467.333 268.689L467.653 269.304L467.279 269.861L466.427 269.835L466.243 269.407L465.097 268.207L464.489 268.265L466.002 270.465L466.427 270.52V271.661H465.311V271.079L464.698 270.279L464.089 270.223L463.801 270.935L463.601 270.32L461.731 268.251L462.173 269.444L461.294 270.001L460.094 269.559L459.166 267.9L459.486 266.556L456.974 265.68L456.831 266.002L455.981 266.439L455.631 265.857H454.787L454.087 266.909H453.328L452.511 265.596L451.082 263.961L449.743 263.611L448.369 262.011L445.132 261.339L442.823 260.463L441.132 260.931L438.156 261.34L436.347 260.406L435.48 259.128L434.345 258.616L431.609 259.128L429.001 257.575L423.267 256.14L420.312 253.1L417.62 251.839L416.751 249.45L412.451 245.757L409.019 243.802L407.541 241.977L406.109 243.455L404.676 243.802L403.504 242.324L401.415 241.66L400.983 242.67L399.721 241.66L399.895 240.109L399.244 238.587L399.895 237.111L398.288 235.411L397.988 236.411L396.859 235.758L395.034 233.717V232.066L393.741 231.796L389.769 223.172L389.576 219.782L386.376 214.165L385.697 211.165L383.179 210.388L378.918 206.902L379.691 204.867L385.991 207.482L388.991 206.222L392.48 201.865V200.7L389.962 199.443V198.085L385.117 194.307L380.565 190.724L376.98 186.076L375.272 184.833L372.866 181.809L370.735 179.542L368.605 177.823L364.515 174.456L363.829 171.191L362.109 169.025L359.428 168.303L356.68 164.559L356.406 161.259L353.243 155.83L351.252 148.546L347.952 142.361L346.336 138.271L344.412 138.581L343.588 136.965L341.868 134.938L341.457 131.329L335.925 131.707L333.725 127.584L333.967 127.274L335.547 128.58L337.161 128.408L336.75 126.999V125.212L335.477 123.391L336.201 122.017L335.135 120.917L334.917 116.617L333.039 111.188L332.765 108.164L331.765 104.728L328.565 103.628L328.393 99.606L328.806 98.3L326.95 95.208L328.186 94.177L327.258 93.903L324.958 94.831L323.584 94.453L322.725 93.079L320.972 92.598L319.908 92.837L319.151 92.254L315.886 90.054L313.48 88.102L309.014 88.274L304.88 89.128L303.849 88.648L302.268 88.681L300.861 89.472L298.489 89.918L295.089 89.059H294.23L290.795 88.373L288.216 86.035L285.536 85.142L282.512 85.622L280.999 85.45L276.155 84.45H273.062L271.309 85.628L271.035 82.365L268.904 80.613L264.232 77.451L262.616 77.108L261.552 76.145L257.358 74.045L254.439 73.289L252.823 72.361L250.551 72.261L249.376 73.095L246.154 71.428L239.335 69.913L236.08 70.976L233.353 69.076L225.699 68.092L220.319 69.076L213.346 68.32L209.406 67.258H204.63L202.887 68.328L195.987 64.917L188.408 61.28L183.56 59.158L175.08 57.028L171.747 60.137L170.761 58.09L173.944 55.969L168.944 54.757L166.976 55.136L159.397 54.605L160.306 52.862L157.806 50.438L151.062 48.619L146.517 49.3L142.5 48.392L148.26 46.951L144.546 45.74L141.818 46.573L139.772 45.664L135.453 45.134L134.166 42.334L128.78 39.828L124.157 37.48L117.111 33.388L115.065 30.811L110.898 31.492L110.517 28.158L113.169 23.234L109.457 21.793L108.32 23.005V24.978L104.909 26.949V30.738L102.409 24.449L104.153 18.461L97.9382 17.328L79.6002 9.21797L69.6002 6.11197L63.6142 3.91197L61.9492 4.74597L61.0332 1.33797L53.6852 0.0479736L47.1692 2.92797L46.1802 1.64097L44.1342 1.71597L41.3332 0.427974L34.7412 3.22797L33.9072 6.41097L28.3742 5.87997L24.5882 7.24897L19.1312 12.476H15.7222L13.8222 14.068L11.9282 12.476L8.74422 13.007V15.584H5.03822L1.93022 17.328L0.568223 15.584L0.0532227 17.644L1.78022 18.728H2.91222L3.13722 23.265L5.40622 25.759L7.40022 29.979L6.40022 32.379V34.557L7.62422 35.01L8.80822 32.658L9.57922 35.245L13.2532 36.645L13.9342 35.245H17.7442L16.4732 36.786L16.7922 38.602L12.9822 39.237L11.6202 42.137L14.1612 46.173L18.4692 47.852L18.7872 48.804L21.8262 49.847L21.8702 51.571L20.6492 52.708L24.3232 56.835L23.2332 58.877L31.5332 64.094L33.5332 67.721L35.5272 70.399V68.857L37.8412 68.766L38.4312 69.766L41.9702 74.711L44.0112 72.261L41.1112 67.588L43.3802 65.048L44.6512 60.692L47.6002 58.061L51.5002 58.334L48.9162 59.741L46.1932 61.647L44.3272 65.228L46.3272 70.353L51.2272 69.811L54.9932 66.952L56.9432 68.452L61.0262 67.319V64.869L61.8442 64.415L66.4692 64.824L64.9692 65.824V67.276L69.4132 67.729L70.0942 66.096L75.7182 63.196L84.7002 59.058L89.0532 58.785L91.0942 57.606L93.8622 58.468L95.6312 55.928L89.2802 51.028L86.4682 51.572L79.9802 50.303L73.8092 49.896L67.1422 47.265L57.4362 43.772L51.7642 42.365L46.8642 40.913L47.0892 39.597L56.3422 41.14L59.5632 43.498L68.9082 45.998L74.6682 47.133L85.5572 46.816L87.2342 48.216L93.4472 48.035V49.528L95.7172 53.067L101.205 48.305L104.064 50.391L106.875 50.211L110.866 47.805L111.32 50.98L103.52 52.023L99.1202 53.339L100.62 58.464L96.9932 56.15L95.4052 58.239L94.0892 61.328L92.9992 60.647H90.9132L92.0032 62.46L93.6802 63.776L95.9472 66.59L102.847 76.205L103.571 80.742L106.883 84.142L109.283 86.5L109.739 92.4L108.785 92.444L108.285 87.817L105.744 85.594L102.522 83.6L99.6652 77.158L93.5412 66.858L87.9182 67.72L84.0612 67.584L81.7942 67.084L73.6802 68.721H71.8622L69.4112 72.486L63.8322 70.309L59.7962 72.849L56.6672 71.08L54.4892 71.397L53.6722 74.982L56.2592 77.432L52.6292 81.786L50.5882 84.461L51.4952 86.822L50.5442 90.087L48.4572 91.628L52.3122 96.028L55.3522 95.438L58.2092 92.854L60.5682 92.217L62.8802 97.343L65.9652 97.616L68.7802 95.169H70.7802L77.1742 99.975L69.3222 96.618L67.0522 100.203L65.4192 100.837L63.2422 101.246L67.1892 106.646L70.8632 108.824L74.3122 107.689L77.1242 109.502L75.1242 110.183L72.0392 112.859L69.4552 113.859L70.0892 117.08L68.2762 117.58L66.5522 118.896L63.5122 123.569L60.4742 125.569L56.2082 128.562V130.286L61.6532 134.822L65.4632 136.546L69.4992 137.046L80.0242 127.475L87.1912 122.121L88.8242 118.811L90.6372 117.949L88.5512 122.305L86.7382 125.888L88.1382 130.469L90.6322 130.379L91.4062 132.329L92.9062 130.015L95.0372 129.742L97.8482 129.288L101.161 126.023L101.931 123.846L104.654 120.533L112.592 117.949L107.875 120.625L106.286 123.89L103.972 125.569L100.615 128.337L99.6152 131.875L102.115 134.506L102.749 130.832L106.423 128.473L110.731 127.473L110.958 128.866L105.015 130.784L103.515 134.369L108.686 139.631L109.094 142.531L112.816 145.479L118.802 146.879L125.88 142.615L127.28 141.027L126.011 139.527L125.875 138.127L127.054 135.902L128.005 133.091L127.552 130.506L125.48 128.858L124.936 130.73L123.536 127.738L124.17 126.286L122.582 122.612L123.399 117.939L123.899 123.928L126.667 126.286L131.611 131.186V133.228L133.517 135.178L139.186 133.778L142.907 132.643L146.4 129.06L144.04 125.748L146.899 125.929L147.444 131.329L147.261 133.416L142.861 134.731L140.461 137.409L143.819 140.266L141.232 140.311L139.101 138.27L136.924 139.585L138.648 143.307L135.901 147.073L136.923 147.663L138.102 146.889L142.864 146.481L148.126 145.622L145.133 147.663L141.957 147.39L140.369 148.115L140.008 150.246L142.275 151.606L137.604 150.79L134.336 153.013L130.117 157.321L132.117 159.137L132.662 162.447L135.655 165.804L138.105 171.837L142.052 175.514L146.452 173.834L152.167 175.834L157.338 176.107L156.977 173.656L154.754 170.156L151.987 162.582L152.393 161.358L154.663 165.258L155.842 170.158L158.342 171.658L159.113 173.518L161.699 175.648L164.42 173.518L163.649 165.488L163.605 159.138L163.151 154.057L163.56 153.014L165.509 154.875L164.919 158.73L166.371 161.453L165.784 164.674L166.284 172.657L168.824 173.338L177.034 170.797L179.168 167.351L177.398 160.729L172.634 159.457V154.877L173.95 155.194L174.859 157.914L178.714 159.775L180.62 166.625L182.978 170.798L186.833 173.339L186.38 176.151L181.28 170.968L179.6 170.148L177.923 173.235L172.252 175.593L167.988 176.772L167.263 178.541L166.22 179.131L163.32 178.406L160.144 178.77L157.469 182.353L161.324 186.081H163.638L162.913 182.67L165.227 185.846L168.448 188.115L170.534 188.522L173.209 185.165L177.476 183.716L183.915 184.667L182.555 186.573L177.204 185.573L175.435 186.752L175.977 188.974L173.256 189.339L169.98 192.328L166.17 191.921L164.131 194.505L160.818 192.964L159.318 193.371L160.718 196.455L164.665 199.543V201.312L168.386 205.937L171.652 206.662L170.98 207.528L172.114 209.342L173.339 208.616L175.155 211.616V212.659L176.106 215.559L178.606 216.421L182.372 218.596L186.499 218.054L191.989 222.454L198.928 220.367L199.108 218.098L198.108 209.161L199.471 209.117L198.745 204.989L197.745 204.035L195.976 199.679V197.321L197.745 197.185L197.564 193.285L195.658 188.431L193.3 181.083L192.8 175.14L189.034 175.095L188.773 173.78L193.299 172.191L194.659 163.572L195.794 165.886L195.747 170.694L195.339 177.906L195.976 183.53L196.384 186.388L198.017 191.378L199.332 197.001L202.189 202.627L206.272 203.442L208.539 201.448L212.124 200.448L213.032 198.996L209.722 195.596V193.328L210.312 192.647L211.036 195.647L213.667 197.324L215.029 197.235L216.887 194.467L214.893 191.291L214.756 189.567L212.262 184.805L215.708 186.705L218.022 186.388L218.566 186.888L216.072 189.836L217.432 191.288L222.105 189.836L223.83 191.516L223.512 192.559L221.612 192.014L219.07 192.695L215.805 200.495H213.582L212.447 204.214L215.669 207.663L218.569 210.063L221.745 208.611L226.053 208.385L225.78 209.785L228.003 211.148L232.359 210.831L238.119 210.467L242.519 207.699L249.382 205.793L255.13 205.521L257.444 208.742L257.535 211.011L259.168 212.869L261.435 214.457V217.225L258.35 213.687L256.444 211.737L256.036 209.106H254.223L250.323 209.921L250.098 210.694L247.467 209.651H244.973L240.436 211.651L233.814 212.195L228.688 213.147L225.788 214.147L224.111 212.747L219.801 212.656L216.808 213.791L215.808 211.975H214.22L213.085 216.014L209.141 220.867H206.78L204.557 222.727L205.283 228.17L204.331 230.301L206.325 232.751L204.195 242.551L206.689 244.501L203.819 249.528L206.903 253.839L207.176 255.563L208.856 256.651L214.208 256.426L215.523 255.291L216.157 251.842L215.157 249.892L213.568 249.211L213.341 247.311L217.151 243.501L217.696 241.142L221.144 240.1L222.144 240.962L220.744 243.139L219.744 244.728L222.828 248.354V250.896L228.271 252.256L230.085 255.975L232.173 256.748L234.26 259.922L237.753 260.467L238.977 258.067L238.026 254.167L238.751 251.809L239.528 249.409L237.57 245.228L235.529 245.999L234.575 247.999L232.175 249.223L233.808 246.242L236.348 243.283L234.354 235.209L234.535 234.166L236.167 237.566L238.935 246.241H239.98L240.44 250.919L246.327 253.576L247.969 251.682L252.193 249.304V247.458H259.675L260.819 245.17L262.228 247.545L258.883 250.275L257.915 253.268L259.588 257.052L259.851 262.506L263.017 265.941L265.923 266.378L267.297 262.952L267.558 261.742H268.594L270.969 258.462L271.315 254.577L273.215 252.115L274.596 252.331L276.02 250.689L276.236 249.089H277.923L276.54 251.422V252.761L274.252 254.314L273.516 256.947L273.476 259.884L271.834 262.733L271.747 268.994L267.777 269.379L265.926 266.379V270.25L263.02 272.275L265.311 279.875L268.83 281.426L273.317 279.049V278.257L275.517 275.088V273.594L280.007 272.537L281.942 274.825V277.113L284.672 275.882V270.954L286.608 268.754L287.137 263.299L290.921 258.81V260.57L288.721 263.828L289.16 268.057L287.927 270.514L286.872 278.964L289.337 279.877L293.211 277.82L295.849 276.673L293.824 281.868L293.737 287.768L294.352 290.498L289.51 295.865L292.153 297.978V294.428H295.848L297.348 295.067L298.934 291.724L300.427 290.013L302.453 284.507V291.458L304.74 290.668V286.438L306.94 284.503L309.23 284.063L311.166 281.686V285.91L308.526 286.175L306.764 286.875L305.975 291.892L303.245 295.411L303.56 297.129L302.36 297.196L301.295 296.532L296.705 299.657L296.374 301.457L293.774 302.057L295.974 304.319L295.574 305.782H293.91L291.51 303.123L287.584 300.323L285.256 301.123L284.791 303.383L283.191 301.454L282.327 303.12L281.262 301.588L281.927 299.394L280.127 300.855L278.727 299.655L278.194 295.466H275.932L276.465 298.79L277.729 301.79L279.554 302.39L280.054 305.183L284.443 308.309L288.237 309.309L292.893 308.644L299.68 314.564L303.004 319.69L306.866 320.618L310.856 326.808L316.978 333.06L318.308 332.06L320.639 333.589H323.765L332.415 324.077L336.871 318.954V315.761L337.336 313.828L343.326 315.428L347.383 315.628L354.504 313.5L353.98 314.628L346.594 316.756L341.47 317.956L342.07 320.156L344.27 319.956L344.602 324.483L340.876 325.548L346.063 325.879L348.924 328.858H351.654L352.786 329.939L356.179 323.816L355.579 320.091L354.779 318.961L358.841 317.829L359.241 313.239L358.376 311.775V310.91L360.239 310.843L354.782 304.256L358.775 306.786L360.239 308.186L361.039 312.179L360.639 315.24L360.371 317.234L356.645 320.96L358.973 323.044L359.638 319.83L360.371 318.83L362.702 321.057L363.587 321.79L363.622 322.602L364.247 323.042L364.28 324.517L364.923 325.278L368.311 325.109L368.48 324.809H369.161L370.683 323.385L372.091 321.945L372.991 321.031L373.449 321.623L374.499 321.811V322.69L373.736 323.35L370.891 323.502L369.724 324.689L369.503 325.399L370.586 326.587L371.281 326.96L371.502 326.518H372.466L373.314 325.755L373.434 324.74L374.822 324.672L375.229 325.229L376.175 325.299L376.295 325.553L375.6 326.144L375.754 326.992L377.413 326.924L378.158 326.398L378.292 325.416L378.769 325.043L378.717 324.162L378.123 323.962V323.046L375.6 320.372L374.432 320.25L372.753 318.201L374.753 318.501L375.481 318.809L376.252 319.469L378.225 320.785L378.667 321.193L380.032 323.087L380.065 324.022H380.379V324.807L381.692 323.425L387.464 323.568L392.625 318.254L392.73 316.954L392.768 316.766H392.747L392.768 316.509L393.23 315.654L393.005 311.385L391.845 311.444L390.936 310.23L393.144 309.659L396.196 306.182L396.154 304.531L397.561 303.131L397 302.114L398.822 298.851L398.569 294.851L396.957 292.833L396.748 284.524L396.28 283.972L395.939 280.072H397.72L398.611 281.512V284.098L399.088 290.965L400.988 294.065L400.647 295.496L401.707 296.514L400.858 298.125L399.789 299.436L399.545 300.624L399.086 302.528L398.693 304.728L398.015 306.466L396.577 308.329V310.746L395.599 311.299V313.928L394.671 316.188L394.056 318.126L393.624 320.28L388.455 325.952L387.736 325.452H382.425L380.414 326.662L379.841 328.179L380.414 331.052L379.265 331.195L376.895 330.404L375.603 333.061L376.825 335.931L377.255 338.661H376.18L373.142 340.166H370.149L368.498 341.674L367.565 343.685L365.627 345.694L364.405 347.705L362.7 348.759V356.902L365.056 354.996V357.042L363.67 360.742L365.649 366.478L368.42 367.799H370.793L377.129 369.58L383.922 371.823L392.63 375.979L396.917 377.828L399.086 378.686L402.128 381.738L404.634 385.414L407.34 386.4L409.45 388.843L415.521 391.481L420.468 392.998L427.068 394.118L431.29 396.825H434.852L436.726 394.368L439.681 393.628L442.428 391.305L443.752 395.054L440.001 397.115L437.838 399.123L439.104 399.967L444.921 401.393L445.78 402.048L453.004 403.709L456.03 407.146L464.701 411.074L474.113 414.017L482.62 417.289L487.12 418.748L488.838 421.548L492.845 421.466L495.714 424.738L498.493 423.512L501.683 424.494L504.465 425.067L506.372 427.684L513.22 425.802L513.709 426.948L517.637 428.665V425.31L520.501 423.428L521.645 424.328L524.835 422.61H527.372L527.454 425.474L526.637 426.292L524.308 426.539L522.208 425.066L520.252 425.884L519.54 427.684V430.056L520.416 431.773L523.188 432.92L524.999 434.066L527.29 434.311L528.434 431.447H530.154L532.444 430.382L531.803 432.92L532.198 434.884L534.653 435.457H536.453L538.313 433.574L536.453 431.448L537.801 429.731L538.313 428.014L539.624 425.721L541.362 422.859H544.635L543.897 421.302L545.781 417.95V415.659H546.843L548.194 414.678V413.369H549.294L552.238 417.132L555.867 415.821L554.939 417.621L558.585 419.994L564.348 417.866V415.246L565.329 413.94L566.48 410.501L564.023 406ZM109.123 61.8L109.992 61.387L111.564 64.946L111.523 67.058L112.35 68.341L111.687 69.873L117.316 78.191L116.201 78.607L113.384 75.17L109.991 70.617L110.363 63.499L109.123 61.8ZM117.523 98.058L112.557 86.882L111.192 78.606L112.185 77.613L114.13 81.874L114.17 84.441L116.322 87.958L117.646 93.795L117.564 95.617L118.805 96.279L119.054 99.341L117.523 98.058ZM163.78 96.953L156.36 73.712L154.06 62.826L157.727 65.558L158.667 73.712L162.762 84.754L165.762 95.588L163.78 96.953ZM184.169 93.968L181.869 89.361L177.859 85.861V82.191L182.978 87.391L185.367 92.256L184.169 93.968ZM200.499 131.405L198.92 142.839L197.401 144.361L199.001 134.448L199.649 127.912L198.349 123.519V119.406L201.049 125.206L202.007 128.856L200.499 131.405ZM217.979 150.939L219.557 146.093L216.399 140.729L219.63 141.759L221.173 144.108L222.202 145.284L217.979 150.939ZM241.229 172.831L239.523 170.994H241.229L244.974 171.647L246.959 170.147L249.823 173.49L241.229 172.831ZM224.411 235.406L223.025 239.806L222.402 239.09V234.212L224.411 232.636H226.227L224.411 235.406ZM356.437 214.806L361.53 212.121H365.253L366.239 210.81L367.607 212.121L368.977 212.945L368.484 213.272L362.696 214.484L362.46 214.534L358.737 217.434L357.753 220.778L357.861 226.744L356.161 225.321V222.256L354.242 220.23L356.437 214.806ZM365.253 240.874L364.431 244.049L362.695 244.996L359.723 246.622L357.423 244.87L361.146 243.446L362.695 242.476L365.253 240.874ZM322.547 123.474V128.854L323.714 130.898L321.88 135.651L320.045 136.069L322.547 123.474ZM315.83 119.262L316.974 121.172L319.52 122.126L316.25 122.889L315.7 124.545L313.729 124.099L315.83 119.262ZM312.584 130.717L313.73 129.317V136.069L311.184 137.591L310.93 132.117L312.584 130.717ZM306.702 178.439L305.029 173.433L301.029 170.933L296.029 172.267L300.7 168.267L303.872 162.178L309.625 157.841L311.044 152.755L314.464 149.25L313.032 146.415L317.883 147.334L323.305 143.413L329.143 148.168L334.911 149.502L336.482 149.336V151.836L329.477 149.501L323.22 147.915L319.885 148.5L315.214 149.75L313.032 153.504V156.591L309.626 160.927L305.79 163.596L304.54 168.017L306.875 173.517L308.543 177.517L306.702 178.439ZM317.516 172.35L313.026 174.684L313.541 172.265L316.794 165.511L317.516 172.35ZM308.537 188.613V182.691H310.955V188.698L315.294 196.87L317.517 206.465L319.443 209.427L319.664 212.178L317.517 213.464L317.717 216.569L316.43 219.32L317.184 224.777L315.542 223.977L314.788 221.977L316.962 211.908L315.707 207.277L314.295 202.036L312.628 196.198L308.537 188.613ZM326.497 302.872L324.702 303.351L323.983 310.662L314.513 314.615L311.278 313.178L312.236 309.583L310.559 304.668L311.759 300.285V294.428L314.037 290.775L317.037 290.013L314.878 293.051L315.716 295.451L314.279 298.329L315.357 300.296L312.602 304.921L315.716 308.154L318.834 308.396L320.629 301.444L323.029 300.295L328.782 298.566L326.497 302.872ZM347.25 261.679L342.469 262.444L338.71 260.055L334.354 259.627L332.48 256.216L328.78 253.569L331.88 254.337L334.956 257.71H337.519L341.102 259.035L348.788 258.581L351.008 256.728L356.132 256.384L360.313 256.899L362.698 258.581L363.959 259.274L366.43 261.705L370.621 263.637L372.843 264.388L374.394 264.851H375.611L376.49 265.478H379.68L378.797 266.401L380.017 266.861L379.638 267.827L379.009 267.155L378.549 267.827L376.369 266.15L374.48 265.312L372.76 265.355L372.3 266.155L368.278 266.07L367.058 265.147L364.587 264.268L362.699 263.117L360.399 259.292L352.116 259.635L347.25 261.679ZM377.58 300.289L376.271 299.589V297.371L374.455 295.503L371.68 293.688L370.268 292.88L368.705 290.056L369.26 289.403L377.576 297.064L377.58 300.289ZM382.988 279.489L381.288 278.507L380.438 278.839L379.515 279.872L379.479 280.76L374.379 280.946L373.379 280.69L372.971 281.575L371.937 280.575L372.937 278.653L374.807 279.17L374.972 278.062L376.452 278.024L378.005 279.319L378.968 279.488L379.187 278.799L378.893 278.244L379.741 277.286L377.116 276.102L375.343 275.733L373.309 277.654L372.2 278.023L367.8 276.137L364.842 275.547L362.712 276.247L358.27 275.079L353.987 272.836L355.143 271.884L356.433 272.702L360.243 273.447L362.712 274.217L363.437 274.102L365.213 273.214L369.169 274.509L372.199 274.953L374.599 274.084H377.408L378.997 275.138L380.848 275.655L381.217 274.436H379.444L379.554 273.214L381.995 272.993L384.213 272.03H385.841L384.398 274.361L382.328 276.061L381.179 276.543L384.064 277.023L386.8 278.723L387.575 279.485L382.988 279.489ZM405.493 261.632L406.738 260.892L408.051 261.228L410.051 262.001L412.118 263.38L414.775 263.869L414.341 264.862V265.769L413.096 265.938L412.76 266.105H411.98L410.366 264.592L409.966 263.666L408.923 262.607H406.938L406.566 262.945V264.155L407.107 264.794V265.702L405.324 264.794L405.676 263.481L405.862 262.305L405.493 261.632ZM414.923 354.48L405.514 366.308L402.906 367.8L401.137 372.32L398.53 374.544L394.245 373.855L395.732 372.319H398.248L400.019 368.264L405.93 361.454L408.989 356.687L413.433 350.471L414.923 352.148V354.48ZM418.767 272.161L416.192 271.992L414.611 271.219L416.058 270.579L419.891 270.899L422.917 272.393L418.767 272.161ZM477.995 349.697L475.795 349.935L473.676 349.575L471.196 349.655L473.836 350.655L473.315 351.014L470.557 351.655L469.757 350.577L469.078 350.095L468.197 349.813L467.316 348.333L466.672 347.492L467.316 346.892L466.352 345.529L465.194 345.292L463.954 344.611H463.18L461.461 343.051H460.58L459.862 342.41L458.462 343.051L457.099 342.33L453.899 341.809L450.46 340.528L448.46 339.05L448.018 337.206L445.335 336.806L444.098 335.967L442.215 335.688L440.174 334.844L437.933 334.123L438.733 333.523H440.293L441.893 333.762L444.056 334.562L446.135 335.438L447.093 334.445V333.528L448.693 334.369L451.855 335.445L452.215 336.33L453.575 336.288L455.856 336.85L456.618 337.93L458.257 338.812L459.54 339.49L460.299 340.972L462.099 341.012L463.624 340.893L465.262 341.614L467.705 342.535L470.064 343.695L472.307 343.855L475.227 345.136V346.336L474.465 346.094L472.144 345.415L470.624 345.176L469.344 344.536L467.304 343.975L468.063 345.817L468.185 346.817L468.663 348.017L469.704 347.938L471.787 347.338L473.547 348.219L475.669 348.141L478.589 349.259L477.995 349.697ZM525.495 353.618L524.415 355.696L522.975 355.296V353.915L524.055 353.094L524.975 352.134H525.857L526.738 352.416L525.495 353.618Z" fill="#EEEEEE"/>
</g>
<path d="M117.321 78.192L116.205 78.608L113.388 75.171L109.999 70.619L110.37 63.501L109.13 61.801L109.999 61.3879L111.571 64.947L111.531 67.059L112.358 68.342L111.695 69.874L117.321 78.192Z" fill="#EEEEEE"/>
<path d="M119.06 99.342L117.528 98.059L112.562 86.884L111.197 78.608L112.191 77.614L114.136 81.8751L114.176 84.4431L116.328 87.96L117.653 93.798L117.571 95.619L118.811 96.2811L119.06 99.342Z" fill="#EEEEEE"/>
<path d="M165.764 95.5891L163.784 96.954L156.361 73.713L154.061 62.827L157.728 65.559L158.668 73.713L162.762 84.754L165.764 95.5891Z" fill="#EEEEEE"/>
<path d="M185.368 92.262L184.168 93.968L181.868 89.361L177.858 85.861V82.193L182.977 87.393L185.368 92.262Z" fill="#EEEEEE"/>
<path d="M202.021 128.861L200.501 131.408L198.922 142.841L197.402 144.363L199.002 134.449L199.65 127.914L198.35 123.521V119.407L201.05 125.207L202.021 128.861Z" fill="#EEEEEE"/>
<path d="M131.672 147.694V150.238L130.401 150.193L129.492 150.285L129.22 151.785L126.631 155.147L124.449 151.785L123.768 152.511L122.224 149.922L122.814 145.922L125.45 144.378L126.223 144.467L128.039 144.105L131.672 147.694Z" fill="#EEEEEE"/>
<path d="M131.672 147.694V150.238L130.401 150.193L129.492 150.285L129.22 151.785L126.631 155.147L124.449 151.785L123.768 152.511L122.224 149.922L122.814 145.922L125.45 144.378L126.223 144.467L128.039 144.105L131.672 147.694Z" fill="#EEEEEE"/>
<path d="M136.26 137.064L134.08 137.837L132.626 139.7H131.4L131.311 139.291L130.538 136.928L132.446 135.928L136.26 137.064Z" fill="#EEEEEE"/>
<path d="M136.26 137.064L134.08 137.837L132.626 139.7H131.4L131.311 139.291L130.538 136.928L132.446 135.928L136.26 137.064Z" fill="#EEEEEE"/>
<path d="M136.443 144.106L133.081 145.149L130.854 144.378L131.672 142.106L133.399 141.923L135.671 140.697L136.443 144.106Z" fill="#EEEEEE"/>
<path d="M136.443 144.106L133.081 145.149L130.854 144.378L131.672 142.106L133.399 141.923L135.671 140.697L136.443 144.106Z" fill="#EEEEEE"/>
<path d="M133.649 149.103L134.035 147.831L137.124 149.285L135.386 149.626L134.307 150.285L133.649 149.103Z" fill="#EEEEEE"/>
<path d="M90.3151 64.593L86.1921 63.362L84.1551 64.88L83.0161 64.593L83.3971 61.135L87.4731 61.389L90.3151 64.593Z" fill="#EEEEEE"/>
<path d="M90.3151 64.593L86.1921 63.362L84.1551 64.88L83.0161 64.593L83.3971 61.135L87.4731 61.389L90.3151 64.593Z" fill="#EEEEEE"/>
<path d="M153.381 179.338L151.116 180.165L149.939 178.511L150.244 177.466L152.074 177.816L153.381 179.338Z" fill="#EEEEEE"/>
<path d="M153.381 179.338L151.116 180.165L149.939 178.511L150.244 177.466L152.074 177.816L153.381 179.338Z" fill="#EEEEEE"/>
<path d="M165.764 176.159L165.308 177.771L162.828 176.986L163.828 176.159H165.764Z" fill="#EEEEEE"/>
<path d="M165.764 176.159L165.308 177.771L162.828 176.986L163.828 176.159H165.764Z" fill="#EEEEEE"/>
<path d="M202.264 204.933L200.064 205.255L197.452 199.067L198.368 198.379L199.857 200.534L202.264 204.933Z" fill="#EEEEEE"/>
<path d="M202.264 204.933L200.064 205.255L197.452 199.067L198.368 198.379L199.857 200.534L202.264 204.933Z" fill="#EEEEEE"/>
<path d="M213.861 207.771L213.356 210.658L210.744 213.958L209.37 217.9H207.353L209.371 213L210.149 209.927L209.096 209.883L208.224 214.053L204.879 212.495L207.72 208.645L208.82 204.611L213.861 207.771Z" fill="#EEEEEE"/>
<path d="M213.861 207.771L213.356 210.658L210.744 213.958L209.37 217.9H207.353L209.371 213L210.149 209.927L209.096 209.883L208.224 214.053L204.879 212.495L207.72 208.645L208.82 204.611L213.861 207.771Z" fill="#EEEEEE"/>
<path d="M227.477 211.917L225.819 212.636L223.193 211.511L219.939 210.665L224.163 210.04L227.477 211.917Z" fill="#EEEEEE"/>
<path d="M227.477 211.917L225.819 212.636L223.193 211.511L219.939 210.665L224.163 210.04L227.477 211.917Z" fill="#EEEEEE"/>
<path d="M226.23 232.634L224.414 235.406L223.028 239.806L222.405 239.09V234.213L224.414 232.637L226.23 232.634Z" fill="#EEEEEE"/>
<path d="M217.983 150.938L219.562 146.091L216.405 140.728L219.635 141.757L221.178 144.106L222.207 145.283L217.983 150.938Z" fill="#EEEEEE"/>
<path d="M249.826 173.49L241.232 172.83L239.526 170.993H241.232L244.977 171.646L246.962 170.146L249.826 173.49Z" fill="#EEEEEE"/>
<path d="M138.604 39.248L143.997 33.907L147.13 35.55L150.417 35.499L154.679 37.451L156.374 35.651L164.074 36.832L167.155 35.086L175.937 42.738L173.677 43.252L171.726 41.146L169.113 43.248L162.847 43.556L159.714 42.118L154.835 44.118L150.161 41.242L145.282 41.91H139.889L138.604 39.248Z" fill="#EEEEEE"/>
<path d="M138.604 39.248L143.997 33.907L147.13 35.55L150.417 35.499L154.679 37.451L156.374 35.651L164.074 36.832L167.155 35.086L175.937 42.738L173.677 43.252L171.726 41.146L169.113 43.248L162.847 43.556L159.714 42.118L154.835 44.118L150.161 41.242L145.282 41.91H139.889L138.604 39.248Z" fill="#EEEEEE"/>
<path d="M334.939 108.589L338.818 119.265L338.025 126.133L347.77 136.624L352.925 137.593L352.232 140.813L352.043 144.999L355.217 147.027L357.068 152.405L359.89 149.496L356.804 135.037L351.426 127.455L355.393 121.284L359.272 115.729L353.542 106.737L347.77 104.537L350.015 99.776L346.753 97.307L341.022 98.5409L333.881 102.241L338.73 104.357L340.493 106.296L334.939 108.589Z" fill="#EEEEEE"/>
<path d="M334.939 108.589L338.818 119.265L338.025 126.133L347.77 136.624L352.925 137.593L352.232 140.813L352.043 144.999L355.217 147.027L357.068 152.405L359.89 149.496L356.804 135.037L351.426 127.455L355.393 121.284L359.272 115.729L353.542 106.737L347.77 104.537L350.015 99.776L346.753 97.307L341.022 98.5409L333.881 102.241L338.73 104.357L340.493 106.296L334.939 108.589Z" fill="#EEEEEE"/>
<path d="M378.549 149.6L381.627 142.282L384.49 147.691L382.74 142.282L384.49 140.055L387.036 141.089L389.024 138.148L385.763 129.713L377.888 119.613L374.547 123.913L375.819 128.686L372.08 125.266L369.217 128.766L372.478 136.166L368.819 138.95L369.933 143.42L375.5 139.348L378.548 142.53L376.376 147.382L378.549 149.6Z" fill="#EEEEEE"/>
<path d="M378.549 149.6L381.627 142.282L384.49 147.691L382.74 142.282L384.49 140.055L387.036 141.089L389.024 138.148L385.763 129.713L377.888 119.613L374.547 123.913L375.819 128.686L372.08 125.266L369.217 128.766L372.478 136.166L368.819 138.95L369.933 143.42L375.5 139.348L378.548 142.53L376.376 147.382L378.549 149.6Z" fill="#EEEEEE"/>
</g>
<defs>
<clipPath id="clip0_732_79">
<rect width="591.02" height="435.5" fill="white"/>
</clipPath>
</defs>
</svg>
